<svg width="1600" height="1040" viewBox="0 0 1600 1040" fill="none" xmlns="http://www.w3.org/2000/svg">
  <rect width="1600" height="1040" rx="44" fill="#020617"/>
  <rect x="52" y="52" width="1496" height="936" rx="34" fill="#0F172A" stroke="rgba(255,255,255,0.08)"/>
  <rect x="108" y="110" width="1384" height="116" rx="24" fill="#111C31"/>
  <rect x="108" y="274" width="408" height="270" rx="28" fill="#0B1220"/>
  <rect x="546" y="274" width="432" height="270" rx="28" fill="#0B1220"/>
  <rect x="1008" y="274" width="484" height="598" rx="28" fill="#0B1220"/>
  <rect x="108" y="574" width="870" height="298" rx="28" fill="#0B1220"/>
  <path d="M158 786H926" stroke="#1E293B" stroke-width="8" stroke-linecap="round"/>
  <rect x="154" y="712" width="110" height="74" rx="18" fill="#38BDF8"/>
  <rect x="286" y="660" width="110" height="126" rx="18" fill="#7DD3FC"/>
  <rect x="418" y="598" width="110" height="188" rx="18" fill="#0EA5E9"/>
  <rect x="550" y="632" width="110" height="154" rx="18" fill="#38BDF8"/>
  <rect x="682" y="564" width="110" height="222" rx="18" fill="#7DD3FC"/>
  <path d="M592 478C650 362 751 444 826 376C874 332 901 281 936 250" stroke="#7DD3FC" stroke-width="12" stroke-linecap="round"/>
  <rect x="1060" y="334" width="376" height="26" rx="13" fill="#E2E8F0"/>
  <rect x="1060" y="384" width="280" height="18" rx="9" fill="#64748B"/>
  <rect x="1060" y="466" width="308" height="184" rx="24" fill="url(#a)"/>
  <defs>
    <linearGradient id="a" x1="1060" y1="466" x2="1368" y2="650" gradientUnits="userSpaceOnUse">
      <stop stop-color="#0EA5E9"/>
      <stop offset="1" stop-color="#38BDF8"/>
    </linearGradient>
  </defs>
</svg>
