<svg width="1600" height="1040" viewBox="0 0 1600 1040" fill="none" xmlns="http://www.w3.org/2000/svg">
  <rect width="1600" height="1040" rx="44" fill="#020617"/>
  <rect x="56" y="56" width="1488" height="928" rx="34" fill="#0F172A" stroke="rgba(255,255,255,0.08)"/>
  <rect x="112" y="118" width="420" height="808" rx="30" fill="#0B1220"/>
  <rect x="566" y="118" width="866" height="388" rx="30" fill="#0B1220"/>
  <rect x="566" y="538" width="866" height="388" rx="30" fill="#0B1220"/>
  <circle cx="250" cy="280" r="86" fill="#0EA5E9" fill-opacity="0.23"/>
  <circle cx="362" cy="394" r="44" fill="#7DD3FC" fill-opacity="0.52"/>
  <circle cx="246" cy="528" r="112" fill="#38BDF8" fill-opacity="0.18"/>
  <circle cx="370" cy="690" r="58" fill="#E0F2FE" fill-opacity="0.52"/>
  <rect x="620" y="176" width="212" height="16" rx="8" fill="#E2E8F0"/>
  <rect x="620" y="208" width="332" height="12" rx="6" fill="#64748B"/>
  <path d="M642 396C714 332 772 288 850 286C924 284 984 338 1058 336C1128 334 1182 286 1264 252C1310 232 1342 226 1362 226" stroke="#7DD3FC" stroke-width="12" stroke-linecap="round"/>
  <path d="M642 814C700 750 746 724 804 708C870 690 912 692 982 720C1062 752 1124 788 1190 786C1266 784 1320 744 1364 704" stroke="#38BDF8" stroke-width="12" stroke-linecap="round"/>
</svg>
