<svg width="1600" height="1040" viewBox="0 0 1600 1040" fill="none" xmlns="http://www.w3.org/2000/svg">
  <rect width="1600" height="1040" rx="44" fill="#020617"/>
  <rect x="56" y="56" width="1488" height="928" rx="34" fill="url(#a)" stroke="rgba(255,255,255,0.08)"/>
  <rect x="112" y="118" width="392" height="808" rx="30" fill="#0B1220"/>
  <rect x="538" y="118" width="894" height="808" rx="30" fill="#0B1220"/>
  <path d="M648 746C742 540 842 436 962 404C1098 368 1218 434 1322 594" stroke="#EF4444" stroke-width="12" stroke-linecap="round"/>
  <path d="M648 780C748 570 848 470 966 438C1090 404 1206 466 1312 620" stroke="#F59E0B" stroke-width="12" stroke-linecap="round"/>
  <path d="M648 812C748 608 850 512 968 480C1080 450 1190 504 1298 648" stroke="#EAB308" stroke-width="12" stroke-linecap="round"/>
  <path d="M648 842C754 652 854 564 972 534C1078 508 1184 554 1284 688" stroke="#22C55E" stroke-width="12" stroke-linecap="round"/>
  <path d="M648 874C760 696 860 616 974 590C1082 566 1184 608 1272 730" stroke="#38BDF8" stroke-width="12" stroke-linecap="round"/>
  <rect x="160" y="176" width="192" height="16" rx="8" fill="#E2E8F0"/>
  <rect x="160" y="206" width="236" height="12" rx="6" fill="#64748B"/>
  <defs>
    <linearGradient id="a" x1="800" y1="56" x2="800" y2="984" gradientUnits="userSpaceOnUse">
      <stop stop-color="#0F172A"/>
      <stop offset="1" stop-color="#020617"/>
    </linearGradient>
  </defs>
</svg>
